<svg width="224" height="19" viewBox="0 0 224 19" fill="none" xmlns="http://www.w3.org/2000/svg">
<path d="M9.36 12.168H12.768C12.624 13.056 12.168 13.632 11.784 13.944C11.04 14.568 10.2 14.688 9.48 14.688C8.256 14.688 7.32 14.28 6.552 13.464C5.808 12.672 5.28 11.472 5.28 10.008C5.28 8.76 5.736 7.272 6.672 6.336C7.416 5.592 8.424 5.232 9.408 5.232C10.2 5.232 10.944 5.448 11.64 6.024C12.048 6.36 12.504 6.888 12.792 7.632L16.752 6C16.176 4.752 15.144 3.48 13.896 2.712C12.672 1.968 11.064 1.632 9.576 1.632C6.744 1.632 4.68 2.664 3.36 3.984C1.968 5.352 0.96 7.44 0.96 9.984C0.96 12.624 2.064 14.568 3.264 15.768C4.56 17.088 6.528 18.144 9.408 18.144C11.448 18.144 13.368 17.688 15.048 16.128C16.968 14.352 17.616 12.096 17.616 8.928H9.36V12.168ZM31.2819 12.936C31.2819 11.736 31.0899 9.864 29.5779 8.424C28.3059 7.224 26.6979 6.96 25.4499 6.96C23.3379 6.96 21.9459 7.656 21.0579 8.52C20.1219 9.432 19.4499 10.872 19.4499 12.672C19.4499 14.712 20.3379 16.032 21.0339 16.728C22.3539 18.048 24.0579 18.36 25.4739 18.36C27.8019 18.36 29.0499 17.64 29.8419 16.872C30.6339 16.104 30.9699 15.264 31.1379 14.664H27.4659C27.2979 15 27.0339 15.24 26.7939 15.384C26.3139 15.648 25.6419 15.672 25.5459 15.672C24.6819 15.672 24.2019 15.384 23.9619 15.144C23.5059 14.688 23.2899 13.92 23.2899 13.344H31.2819V12.936ZM23.4099 11.136C23.4819 10.656 23.7219 10.272 23.9859 9.984C24.3939 9.576 24.8979 9.408 25.5459 9.408C25.9299 9.408 26.6259 9.48 27.1299 9.984C27.4179 10.272 27.6579 10.728 27.7539 11.136H23.4099ZM39.9317 10.416V7.272H37.7477V3.744H33.9077V7.272H32.6837V10.416H33.9077V18H37.7477V10.416H39.9317ZM46.9763 7.272V18H50.8163V7.272H46.9763ZM46.7363 2.808C46.7363 4.008 47.6963 4.968 48.8963 4.968C50.0963 4.968 51.0563 4.008 51.0563 2.808C51.0563 1.608 50.0963 0.647999 48.8963 0.647999C47.6963 0.647999 46.7363 1.608 46.7363 2.808ZM53.4216 18H57.2616V12.24C57.2616 11.592 57.5016 10.896 57.8856 10.536C58.1976 10.248 58.7016 10.032 59.3016 10.032C59.6856 10.032 60.1656 10.104 60.5256 10.488C61.0296 11.016 61.0056 11.952 61.0056 12.576V18H64.8456V11.184C64.8456 10.008 64.7496 9.096 63.8376 8.184C62.9496 7.296 61.7736 7.032 60.6696 7.032C59.7336 7.032 58.3176 7.224 57.2616 8.616V7.272H53.4216V18ZM82.8782 5.52V1.992H71.9102V5.52H75.3182V18H79.4702V5.52H82.8782ZM89.5393 10.176C90.1393 10.176 90.8113 10.464 91.2433 10.872C91.7233 11.352 91.9873 12.048 91.9873 12.624C91.9873 13.248 91.7233 13.872 91.2433 14.328C90.7873 14.784 90.1633 15.048 89.5393 15.048C88.8913 15.048 88.2673 14.784 87.8113 14.328C87.3793 13.896 87.0673 13.272 87.0673 12.624C87.0673 12 87.3313 11.328 87.8113 10.872C88.2433 10.464 88.9153 10.176 89.5393 10.176ZM95.9713 12.624C95.9713 10.704 95.1073 9.456 94.3153 8.688C93.4273 7.848 91.8913 6.912 89.5153 6.912C87.1873 6.912 85.6273 7.824 84.7393 8.688C83.9473 9.456 83.0833 10.704 83.0833 12.624C83.0833 14.064 83.5633 15.432 84.7393 16.584C86.2273 18.048 87.9553 18.36 89.5153 18.36C91.2433 18.36 92.8993 17.976 94.3153 16.584C95.4913 15.432 95.9713 14.064 95.9713 12.624ZM98.1872 7.272V13.968C98.1872 15 98.3792 15.96 99.1952 16.824C100.467 18.192 102.435 18.36 104.043 18.36C105.507 18.36 107.355 18.216 108.675 16.848C109.635 15.864 109.707 14.88 109.707 13.968V7.272H105.867V13.272C105.867 13.752 105.795 14.304 105.315 14.784C104.883 15.192 104.427 15.24 103.947 15.24C103.491 15.24 102.987 15.168 102.603 14.832C102.099 14.376 102.027 13.704 102.027 13.272V7.272H98.1872ZM120.455 14.544C119.759 15.144 119.039 15.264 118.487 15.264C117.503 15.264 116.879 14.832 116.519 14.448C116.063 13.944 115.847 13.248 115.847 12.648C115.847 12.024 116.063 11.328 116.591 10.8C116.975 10.416 117.551 10.056 118.463 10.056C119.279 10.056 119.951 10.392 120.455 10.752V7.536C119.495 7.056 118.631 6.936 117.959 6.936C116.135 6.936 114.647 7.608 113.639 8.568C112.559 9.624 111.911 11.136 111.911 12.72C111.911 14.304 112.559 15.744 113.567 16.728C114.335 17.472 115.703 18.36 117.791 18.36C118.583 18.36 119.423 18.264 120.455 17.76V14.544ZM122.633 18H126.473V12.24C126.473 11.376 126.785 10.8 127.121 10.488C127.553 10.104 128.105 10.032 128.513 10.032C128.897 10.032 129.377 10.08 129.737 10.488C130.169 10.968 130.217 11.784 130.217 12.576V18H134.057V11.184C134.057 10.152 134.009 9.144 133.049 8.184C132.401 7.536 131.393 7.032 129.881 7.032C129.209 7.032 128.417 7.128 127.673 7.56C127.217 7.824 126.761 8.256 126.473 8.616V0.503999H122.633V18ZM140.953 7.272L146.473 18H149.065L151.633 12.096L154.321 18H156.913L162.529 7.272H158.257L155.569 13.104L152.857 7.272H150.505L147.793 12.936L145.249 7.272H140.953ZM163.859 7.272V18H167.699V7.272H163.859ZM163.619 2.808C163.619 4.008 164.579 4.968 165.779 4.968C166.979 4.968 167.939 4.008 167.939 2.808C167.939 1.608 166.979 0.647999 165.779 0.647999C164.579 0.647999 163.619 1.608 163.619 2.808ZM176.736 10.416V7.272H174.552V3.744H170.712V7.272H169.488V10.416H170.712V18H174.552V10.416H176.736ZM178.179 18H182.019V12.24C182.019 11.376 182.331 10.8 182.667 10.488C183.099 10.104 183.651 10.032 184.059 10.032C184.443 10.032 184.923 10.08 185.283 10.488C185.715 10.968 185.763 11.784 185.763 12.576V18H189.603V11.184C189.603 10.152 189.555 9.144 188.595 8.184C187.947 7.536 186.939 7.032 185.427 7.032C184.755 7.032 183.963 7.128 183.219 7.56C182.763 7.824 182.307 8.256 182.019 8.616V0.503999H178.179V18ZM198.18 1.992V11.184C198.18 12.888 198.348 14.928 199.74 16.44C200.724 17.496 202.524 18.36 205.044 18.36C207.3 18.36 208.98 17.736 210.324 16.368C212.052 14.616 212.124 12.864 212.124 11.184V1.992H207.972V11.112C207.972 12 207.996 13.176 207.036 14.016C206.58 14.424 205.836 14.712 205.116 14.712C204.396 14.712 203.628 14.4 203.148 13.944C202.356 13.176 202.332 12.144 202.332 11.472V1.992H198.18ZM214.445 17.112C216.293 18.24 217.805 18.36 218.765 18.36C219.653 18.36 221.477 18.264 222.725 17.016C223.253 16.512 223.805 15.648 223.805 14.352C223.805 13.56 223.517 12.72 222.989 12.216C222.677 11.904 221.909 11.52 221.405 11.376L220.709 11.184C220.109 11.016 219.797 11.016 219.437 10.872C219.197 10.776 218.981 10.608 218.981 10.272C218.981 10.032 219.101 9.864 219.317 9.744C219.557 9.6 219.821 9.528 220.205 9.528C220.901 9.528 221.693 9.816 222.221 10.056L223.517 7.608C222.893 7.344 221.669 6.912 220.085 6.912C218.501 6.912 217.061 7.368 216.245 8.208C215.645 8.832 215.237 9.792 215.237 10.824C215.237 11.64 215.525 12.24 215.933 12.672C216.509 13.296 217.277 13.488 217.805 13.608L218.813 13.848C219.197 13.944 219.581 14.016 219.821 14.232C219.989 14.376 220.013 14.544 220.013 14.712C220.013 14.904 219.989 15.048 219.821 15.216C219.581 15.432 219.125 15.504 218.837 15.504C218.429 15.504 217.829 15.408 217.349 15.24C216.821 15.072 216.269 14.784 215.813 14.448L214.445 17.112Z" fill="#505050"/>
</svg>
