<svg width="151" height="42" viewBox="0 0 151 42" fill="none" xmlns="http://www.w3.org/2000/svg">
<path d="M15.5108 21.7081C15.5108 21.1041 15.397 20.5378 15.1695 20.0092C14.9672 19.4555 14.6638 18.9773 14.2593 18.5746C13.8548 18.1719 13.3744 17.8573 12.8182 17.6308C12.2873 17.3791 11.7058 17.2532 11.0737 17.2532C10.4669 17.2532 9.89808 17.3665 9.36715 17.593C8.83622 17.8195 8.3685 18.1341 7.96398 18.5368C7.58474 18.9395 7.26871 19.4177 7.01588 19.9715C6.78834 20.5 6.67457 21.0663 6.67457 21.6704C6.67457 22.2744 6.78834 22.8407 7.01588 23.3692C7.24343 23.8978 7.55946 24.3634 7.96398 24.7661C8.3685 25.1436 8.83622 25.4583 9.36715 25.7099C9.92337 25.9365 10.5049 26.0497 11.1116 26.0497C11.7184 26.0497 12.2873 25.9365 12.8182 25.7099C13.3491 25.4834 13.8042 25.1688 14.1835 24.7661C14.588 24.3634 14.904 23.8978 15.1316 23.3692C15.3844 22.8407 15.5108 22.287 15.5108 21.7081ZM6.86419 41H0V11.9678H6.86419V14.1197C8.33057 12.2824 10.3279 11.3637 12.8561 11.3637C14.2467 11.3637 15.5361 11.6406 16.7243 12.1943C17.9379 12.7228 18.9871 13.4527 19.872 14.384C20.7569 15.3152 21.4395 16.4101 21.9199 17.6685C22.4255 18.9269 22.6784 20.2735 22.6784 21.7081C22.6784 23.1427 22.4255 24.4767 21.9199 25.7099C21.4395 26.9432 20.7569 28.0255 19.872 28.9567C19.0124 29.888 17.9885 30.6179 16.8002 31.1464C15.6119 31.675 14.3225 31.9392 12.932 31.9392C10.5049 31.9392 8.48227 31.1087 6.86419 29.4475V41Z" fill="#222444"/>
<path d="M26.591 11.9678H33.4552V15.139C34.1884 13.9813 35.0859 13.1004 36.1478 12.4963C37.2097 11.8671 38.4485 11.5525 39.8643 11.5525C40.0413 11.5525 40.2309 11.5525 40.4332 11.5525C40.6607 11.5525 40.9135 11.5777 41.1917 11.628V18.1593C40.2815 17.7063 39.2955 17.4797 38.2336 17.4797C36.6408 17.4797 35.4399 17.9579 34.6309 18.9144C33.8471 19.8456 33.4552 21.2173 33.4552 23.0295V31.3352H26.591V11.9678Z" fill="#222444"/>
<path d="M50.8897 21.5571C50.8897 22.2115 51.0035 22.8155 51.2311 23.3692C51.4839 23.8978 51.7999 24.3634 52.1791 24.7661C52.5837 25.1688 53.0514 25.4834 53.5823 25.7099C54.1385 25.9365 54.72 26.0497 55.3268 26.0497C55.9336 26.0497 56.5025 25.9365 57.0334 25.7099C57.5896 25.4834 58.0573 25.1688 58.4366 24.7661C58.8411 24.3634 59.1571 23.8978 59.3847 23.3692C59.6375 22.8155 59.7639 22.2241 59.7639 21.5948C59.7639 20.9908 59.6375 20.4245 59.3847 19.8959C59.1571 19.3422 58.8411 18.864 58.4366 18.4613C58.0573 18.0586 57.5896 17.744 57.0334 17.5175C56.5025 17.291 55.9336 17.1777 55.3268 17.1777C54.72 17.1777 54.1385 17.291 53.5823 17.5175C53.0514 17.744 52.5837 18.0586 52.1791 18.4613C51.7999 18.864 51.4839 19.3296 51.2311 19.8582C51.0035 20.3867 50.8897 20.953 50.8897 21.5571ZM43.6463 21.4816C43.6463 20.047 43.9371 18.713 44.5186 17.4797C45.1001 16.2213 45.9091 15.139 46.9457 14.233C47.9823 13.3017 49.2085 12.5718 50.6243 12.0433C52.0654 11.5147 53.6329 11.2505 55.3268 11.2505C56.9955 11.2505 58.5377 11.5147 59.9535 12.0433C61.3946 12.5467 62.6334 13.264 63.67 14.1952C64.7319 15.1013 65.5536 16.1961 66.1351 17.4797C66.7166 18.7382 67.0073 20.1351 67.0073 21.6704C67.0073 23.2056 66.7039 24.6151 66.0971 25.8987C65.5156 27.1572 64.7066 28.252 63.67 29.1832C62.6334 30.0893 61.382 30.794 59.9156 31.2974C58.4745 31.8008 56.907 32.0525 55.213 32.0525C53.5444 32.0525 52.0022 31.8008 50.5864 31.2974C49.1705 30.794 47.9443 30.0767 46.9078 29.1455C45.8965 28.2142 45.1001 27.1068 44.5186 25.8232C43.9371 24.5144 43.6463 23.0672 43.6463 21.4816Z" fill="#222444"/>
<path d="M77.33 21.5948C77.33 22.2241 77.4437 22.8155 77.6713 23.3692C77.8988 23.8978 78.2022 24.3634 78.5815 24.7661C78.986 25.1688 79.4537 25.4834 79.9846 25.7099C80.5408 25.9365 81.135 26.0497 81.767 26.0497C82.3738 26.0497 82.9427 25.9365 83.4736 25.7099C84.0298 25.4834 84.4975 25.1688 84.8768 24.7661C85.2813 24.3634 85.5973 23.8978 85.8249 23.3692C86.0777 22.8407 86.2041 22.2744 86.2041 21.6704C86.2041 21.0663 86.0777 20.5 85.8249 19.9715C85.5973 19.4177 85.2813 18.9395 84.8768 18.5368C84.4975 18.1341 84.0298 17.8195 83.4736 17.593C82.9427 17.3665 82.3738 17.2532 81.767 17.2532C81.1603 17.2532 80.5788 17.3665 80.0225 17.593C79.4916 17.8195 79.0239 18.1341 78.6194 18.5368C78.2401 18.9395 77.9241 19.4052 77.6713 19.9337C77.4437 20.4371 77.33 20.9908 77.33 21.5948ZM85.9766 0H92.8787V31.3352H85.9766V29.1832C84.5102 31.0206 82.5255 31.9392 80.0225 31.9392C78.6067 31.9392 77.3047 31.675 76.1164 31.1464C74.9281 30.6179 73.8915 29.888 73.0067 28.9567C72.1218 28.0255 71.4265 26.9306 70.9209 25.6722C70.4405 24.4138 70.2003 23.0546 70.2003 21.5948C70.2003 20.2106 70.4279 18.9018 70.8829 17.6685C71.3633 16.4101 72.0333 15.3152 72.8929 14.384C73.7525 13.4527 74.7764 12.7228 75.9647 12.1943C77.1783 11.6406 78.5056 11.3637 79.9467 11.3637C82.3738 11.3637 84.3838 12.2069 85.9766 13.8932V0Z" fill="#222444"/>
<path d="M116.18 21.5948C116.18 22.2241 116.293 22.8155 116.521 23.3692C116.748 23.8978 117.052 24.3634 117.431 24.7661C117.836 25.1688 118.303 25.4834 118.834 25.7099C119.39 25.9365 119.985 26.0497 120.617 26.0497C121.223 26.0497 121.792 25.9365 122.323 25.7099C122.879 25.4834 123.347 25.1688 123.726 24.7661C124.131 24.3634 124.447 23.8978 124.674 23.3692C124.927 22.8407 125.054 22.2744 125.054 21.6704C125.054 21.0663 124.927 20.5 124.674 19.9715C124.447 19.4177 124.131 18.9395 123.726 18.5368C123.347 18.1341 122.879 17.8195 122.323 17.593C121.792 17.3665 121.223 17.2532 120.617 17.2532C119.985 17.2532 119.39 17.3665 118.834 17.593C118.303 17.8195 117.836 18.1341 117.431 18.5368C117.052 18.9395 116.748 19.4052 116.521 19.9337C116.293 20.4371 116.18 20.9908 116.18 21.5948ZM124.826 11.9678H131.728V31.3352H124.826V29.1832C123.36 31.0206 121.375 31.9392 118.872 31.9392C117.456 31.9392 116.154 31.6875 114.966 31.1842C113.778 30.6556 112.741 29.9257 111.856 28.9945C110.971 28.0632 110.276 26.9684 109.77 25.7099C109.29 24.4515 109.05 23.0798 109.05 21.5948C109.05 20.2106 109.29 18.9018 109.77 17.6685C110.251 16.4101 110.921 15.3152 111.78 14.384C112.64 13.4527 113.664 12.7228 114.852 12.1943C116.04 11.6406 117.355 11.3637 118.796 11.3637C121.223 11.3637 123.233 12.2069 124.826 13.8932V11.9678Z" fill="#222444"/>
<path d="M136.399 11.9678H143.264V15.139C143.997 13.9813 144.894 13.1004 145.956 12.4963C147.018 11.8671 148.257 11.5525 149.673 11.5525C149.85 11.5525 150.039 11.5525 150.242 11.5525C150.469 11.5525 150.722 11.5777 151 11.628V18.1593C150.09 17.7063 149.104 17.4797 148.042 17.4797C146.449 17.4797 145.248 17.9579 144.439 18.9144C143.655 19.8456 143.264 21.2173 143.264 23.0295V31.3352H136.399V11.9678Z" fill="#222444"/>
<path d="M105.044 12.2111V41.2433H98.1802V12.2111H105.044Z" fill="#222444"/>
<path d="M98.0285 3.30131C97.8263 3.75434 97.7252 4.24514 97.7252 4.77368C97.7252 5.30223 97.8263 5.8056 98.0285 6.28381C98.2308 6.73685 98.5089 7.13955 98.8629 7.49191C99.2168 7.84428 99.6213 8.12113 100.076 8.32248C100.557 8.52383 101.062 8.62451 101.593 8.62451C102.124 8.62451 102.617 8.52383 103.072 8.32248C103.553 8.12113 103.97 7.84428 104.324 7.49191C104.678 7.13955 104.956 6.73685 105.158 6.28381C105.36 5.8056 105.462 5.30223 105.462 4.77368C105.462 4.24514 105.36 3.75434 105.158 3.30131C104.956 2.8231 104.678 2.40781 104.324 2.05545C103.97 1.70308 103.553 1.42623 103.072 1.22488C102.617 1.02353 102.124 0.922852 101.593 0.922852C101.062 0.922852 100.557 1.02353 100.076 1.22488C99.6213 1.42623 99.2168 1.70308 98.8629 2.05545C98.5089 2.40781 98.2308 2.8231 98.0285 3.30131Z" fill="#36B688"/>
</svg>
